<?xml version="1.0" encoding="utf-8"?>
<!-- Generator: Adobe Illustrator 23.1.0, SVG Export Plug-In . SVG Version: 6.00 Build 0)  -->
<svg version="1.1" id="Ebene_1" xmlns="http://www.w3.org/2000/svg" xmlns:xlink="http://www.w3.org/1999/xlink" x="0px" y="0px"
	 viewBox="0 0 328.8 708.7" style="enable-background:new 0 0 328.8 708.7;" xml:space="preserve">
<style type="text/css">
	.st0{fill:#7F4444;}
</style>
<g>
	<g transform="matrix( 1, 0, 0, 1, 0,0) ">
		<g>
			<g id="Layer2_0_FILL_3_">
				<path class="st0" d="M261.5,47.2L251,38.4c-0.1-0.1-0.2-0.2-0.4-0.2c-3.9-2.6-8-4.8-12.3-6.7l-9.6-4.1c-8.9-3-19-5.2-30.2-6.5
					c-7.5-1-15.6-1.5-24.3-1.5c-1.1-0.1-2.1-0.1-3-0.1c-0.4,0-0.8,0-1.2,0h-3v0.1h-4.6c-14.5,0.5-28.4,2.3-41.7,5.4
					c-3.8,1-7.6,2-11.4,3l-3.8,1.2h2.4v1.1L70.5,44.8c-3.9,2.3-7.8,4.9-11.6,7.8C43.8,63.7,32.2,76.9,24.2,92.2
					c-8.6,16.2-12.9,34.1-12.9,53.5c0,6.6,0.6,16.8,1.7,30.5l0.9,14.6c-1.1,10.3-1.3,20.1-0.6,29.5l0.1,27.1
					c-0.1,1.9-0.3,3.7-0.6,5.2c-0.5,2.3-1.1,4-1.8,5.2l-0.6-0.2l-0.1-0.2l-0.7,1.2l2.6,4.6c3.3,7,4.9,10.8,4.9,11.5l-0.4,0.5
					l-0.4,0.1l-5,4.4c-3.5,3.3-5.2,5.7-5.2,7.1c0,0.4,1.2,2.7,3.6,6.8c2.8,4.5,4.7,7.3,5.8,8.4c3.6,0.1,6,0.4,7.4,0.9
					c1.5,0.6,3.2,0.9,4.9,0.9c1.2,0,2.5-0.3,4.1-0.9l2.1-0.4c-5-3.7-7.4-6.5-7.4-8.4c0-0.6,0-0.9,0.1-0.9c0.3-0.1,0.4-0.2,0.4-0.4
					c0.5,0.2,4,3.3,10.5,9.1l0.4,0.6h0.6l0.6,0.7c6.4,4.7,11.7,7.1,15.8,7.1c1.4,0,5.5-1.1,12.5-3.2h4.4c1.8,1.6,3.5,3.1,5,4.6
					l-0.1-1c-0.1-1-0.2-1.7-0.4-2c-0.1-0.1-0.3-0.3-0.5-0.6c-0.3-0.3-0.5-0.5-0.6-0.7c-0.4-0.6-0.5-1.2-0.1-1.5
					c0.2-0.3,0.5-0.4,1-0.3c0.3,0,0.6,0.2,1,0.5c0.6,0.4,1.2,1,1.5,1.5c0-0.1,0-0.3,0.1-0.4c0.1-0.2,0.3-0.4,0.5-0.6
					c0-0.2-0.1-0.5-0.2-0.7c0-0.1-0.2-0.3-0.4-0.6c-0.2-0.2-0.4-0.4-0.4-0.6s-0.1-0.6-0.1-1.2c0-0.5-0.1-0.9-0.3-1.1
					c-1,0.6-1.6,1.5-1.9,2.7c-0.7-0.2-1.1-1-1.3-2.4c-0.2-0.9-0.1-1.5,0.2-2c0-0.1,0.3-0.3,0.7-0.7c0.3-0.2,0.5-0.5,0.5-0.7
					c0.3,0.1,0.6,0.1,0.8-0.2c0.8-0.2,1.6,0.3,2.4,1.5c0.3,0.4,0.5,0.8,0.6,1.3c0,0.2-0.1,0.6-0.3,1.2c0,0.4,0.1,0.9,0.4,1.5
					c0.2,0.6,0.4,1,0.5,1.3c0.6-0.2,1.1-0.4,1.6-0.4c0.9,0.1,1.5,0.5,1.7,1.1c0.1,0.2,0.2,0.5,0.2,1s0.1,0.8,0.2,1
					c0,0.2,0.2,0.4,0.4,0.7c0.2,0.3,0.3,0.5,0.4,0.7c0.1,0.3,0.1,0.6,0.1,1c0,0.2,0,0.6,0,1c0.1,0.6,0.3,1.5,0.7,2.6
					c0.2,1,0.2,2.1,0,3.2c0,0.3-0.1,0.7-0.2,1l0.1,0.1c0.2,0.2,0.3,0.4,0.3,0.6c0,0.1,0,0.3-0.1,0.6c-0.2,0.7-0.4,1.2-0.7,1.5
					c1.5,2.2,2.8,4.3,3.8,6.5c2.7,5.6,4.1,12.2,4.1,19.9c0,0.7-0.2,2.8-0.7,6.3c-0.5,3.2-0.7,5-0.7,5.5l2.8-0.2c0-1.1,0.5-2.5,1.4-4
					c1-2,2.3-3,3.8-3c0.7,0,1.6,0.3,2.7,0.9c1,0.6,1.6,0.9,1.9,0.9c4.3,0,7-2.1,8-6.4c0.1-1.3,0.1-2.9,0.1-4.8l-0.3-3.3h0.1l1-0.1
					c0.5,0,1.1,1.7,1.8,5.2c1,4.6,1.8,7.3,2.4,8.1c0.9-0.2,1.4-0.6,1.5-1.3c0.1-0.9,0.2-1.6,0.2-2c0.7-1.7,3.9-2.5,9.4-2.5
					c1.6,0,2.9,0.1,3.8,0.4c0,0-0.2,0.2-0.4,0.5c0,0-0.2,0.2-0.6,0.6c-0.2,0.2-0.4,0.5-0.4,0.7c-0.1,0.5,0.1,0.9,0.5,1.1
					c0.2,0,0.4,0.1,0.5,0.1l1.2,0.1c0.2,0,0.4-0.1,0.7-0.3l1.1-1c0,0.1,0.1,0.2,0.1,0.4v2.4c0,1.2,0.2,2,0.6,2.5
					c0.4-1.6,0.7-2.5,0.9-2.7c0-0.1,1.1-0.1,3.2-0.1l0.9-10.1c0.5-7.2,1.5-12.1,3-14.8c0.6,3.4,1,8.3,1.2,14.8c0,3.1,0,7.9,0,14.3
					c-0.3,0.3-0.6,0.6-0.8,0.7c-0.5,0.3-1.5,0.3-3,0c-1.2-0.2-2.1-0.2-2.7,0.1v-0.1c0.1-1.2,0.3-2,0.4-2.4c-0.4,0-0.9,0-1.3,0.2
					c-0.4,0.1-0.8,0.4-1,0.8c-0.1,0.2-0.1,0.6-0.1,1c0,0.2,0,0.6,0,1.1c0,0.1,0,0.4,0,0.7c0,0.3,0,0.5,0.1,0.7
					c0.1,0.4,0.4,0.7,0.8,0.9c0.1,2.9,0.4,5.1,0.7,6.6c0.4,2.4,1.3,4.4,2.5,5.9c0.6,0.7,0.7,1.3,0.3,1.6l-1.3-1
					c-0.4,0.1-0.8,0.4-1.1,0.8s-0.5,0.8-0.5,1.3c-0.1,0.7,0,1.6,0.4,2.7c0.5,1,1,1.6,1.4,1.8c0.3,0.2,0.6,0.4,1,0.4s0.7,0,1-0.3
					c0.7-0.4,0.9-1.5,0.6-3.2c-0.3-1.6-0.6-3.1-0.8-4.7c0.4-0.1,0.7-0.5,1-1c0.1-0.2,0.3-0.8,0.4-1.8c0.1-0.5,0.1-1,0.1-1.3
					c0-1.1-0.6-2.1-1.8-3l-0.1-0.1c0-0.8,0-1.7,0.1-2.6c1-0.4,1.9-1.2,2.9-2.1c0.6-0.6,1.3-1.6,2.2-3c0-0.1,0.1-0.2,0.2-0.3h4.1l1,1
					c0.5,0.4,1,0.7,1.5,0.9c0.2-3.3,0.5-5.9,0.8-7.7c0.8-3.5,2.6-5.9,5.5-7.2h5.2c1.4,1.6,2.7,3.5,3.8,5.8c-0.2,0-0.4,0-0.6-0.1
					c-0.2-0.1-0.4-0.3-0.4-0.6c-0.2,0.1-0.4,0.2-0.5,0.4c0-0.2-0.1-0.4-0.1-0.7c-0.1-0.6-0.2-1-0.4-1.3c-0.1-0.4-0.4-0.8-0.8-1
					c-0.4-0.2-0.8-0.3-1.1-0.1c-0.1,0.4-0.4,0.8-0.8,1.3c-0.2,0.3-0.6,0.7-1,1.2l-0.9,1.1c-0.4,0.5-0.7,1-0.8,1.3s-0.1,0.8-0.1,1.6
					v2.4c0,0.7,0.1,1.1,0.4,1.3c0.2,0.2,0.5,0.3,0.7,0.3c1.1,0.2,1.9,0.3,2.4,0.4h0.1c0,0.2-0.1,0.5-0.1,0.7c-0.2,1.9-0.3,3.9-0.3,6
					c0,0.6,0.1,1.1,0.2,1.4c0.1,0.3,0.3,0.7,0.7,1.2c0.2,0.3,0.4,0.9,0.7,1.7c0.4,0.6,1,0.9,1.5,0.9c-0.2,1-0.1,1.8,0.1,2.4
					c0.1,0.4,0.4,0.7,0.7,1c0.4,0.2,0.8,0.3,1.2,0.2c0.2,0,0.4-0.2,0.5-0.4c0.1-0.2,0.2-0.4,0.1-0.7c0-0.2-0.1-0.4-0.2-0.7
					c-0.1-0.4-0.2-0.6-0.2-0.7c-0.1-0.2-0.2-0.7-0.3-1.3c0-0.6-0.1-1-0.2-1.3c-0.2-0.4-0.5-0.8-0.8-1c-0.4-0.3-0.8-0.3-1.2-0.1
					c-0.5-0.5-0.8-1.2-0.9-2.1c0-0.1,0-1,0.1-2.4c0-1.8-0.2-3.6-0.7-5.2l-0.1-0.1c0.1-0.1,0.4-0.2,0.8-0.4c0.5-0.1,0.8-0.2,1-0.2
					c0.3-0.1,0.6-0.3,0.8-0.5c0.2-0.3,0.3-0.6,0.3-0.9c0-0.2-0.1-0.4-0.2-0.6c-0.1-0.3-0.2-0.6-0.2-0.7s-0.1-0.3-0.1-0.4
					c0.3,0,0.8,0,1.3,0c0.1,0,0.3,0,0.4,0c0.2,0.4,0.4,0.9,0.5,1.4c0.6,2.2,1.5,5.8,2.7,11c0,0.9,0,1.9,0,3
					c-0.3,0.1-0.5,0.4-0.6,0.7c0,0.1-0.1,0.5-0.2,1.2v2.7c0,0.5,0,0.9,0.1,1.1c0.1,0.3,0.4,0.7,0.9,1.2c0.3,0.4,0.6,1.3,0.7,2.4
					c0.1,1.2,0.3,2,0.7,2.4c0.3-0.1,0.6-0.4,0.7-0.9c0.5-1.4,0.7-2.9,0.5-4.4c-0.4-1.4-0.6-2.4-0.6-3.2c0-0.8,0.1-1.4,0.1-1.7
					c0-0.6-0.2-1.1-0.6-1.4c0-0.1-0.1-0.2-0.1-0.2c0-1.9,0-4.2,0-6.9c0-2.6-0.2-4.5-0.6-6l-0.2,0.1c0-0.3,0-0.6,0-0.9
					c0-4.6,1.1-7.6,3.3-9c4-2.6,6.4-4.2,7.2-5c0.1-0.2,0.6-1.6,1.5-4.2c0-0.2,0.2-1,0.6-2.4c0,0.2,0,0.5,0,0.8
					c0,0.5,0.1,1.1,0.1,1.5l-0.1,0.1c0,0.2-0.2,0.6-0.4,1.1c-0.1,0.4-0.1,0.7,0,1s0.4,0.7,0.8,1.1c0,0.2,0.1,0.4,0.1,0.6
					c0.1,0,0.3,0,0.4-0.1c0.1,0.3,0.3,0.7,0.4,1.1c0.1,0.7,0.2,1.2,0.3,1.3c0.2,0.5,0.5,0.9,0.9,1.3h-0.1l-1.5-0.2v0.4
					c-0.3-0.1-0.7,0-1.3,0.3l-1.2,0.8c-0.3,0.2-0.6,0.4-0.7,0.6c-0.2,0.4-0.3,0.8-0.2,1.2c0,0.6,0.2,1,0.5,1.2
					c0.2,0.1,0.4,0.2,0.7,0.3l0.1,0.3c0.1,0.2,0.5,0.4,1,0.6c0.7-0.5,1.2-1.1,1.5-1.7c0-0.2,0.1-0.3,0.1-0.4c0.1,0,0.2-0.1,0.2-0.1
					c0.2-0.1,0.6-0.2,1.2-0.3c0.5,0,0.9-0.3,1.1-0.7c0.3-0.4,0.2-0.9-0.1-1.4c0.6,0.2,1.3,0.2,1.8-0.1c0-1.6-0.4-3-1.1-4.4
					c-0.2-0.4-0.4-0.8-0.6-1c-0.2-0.4-0.3-0.7-0.3-1c-0.1-0.7,0-1.6,0.5-2.7c0.2-0.6,0.4-1.2,0.6-1.7c0.2,1.5,0.5,3.3,0.9,5.4
					c0.6,3.7,1.1,7.4,1.6,11.2h3c0.7,0.4,1,1,1,1.8l0.3,2.4c0.5-0.3,0.9-0.9,1.3-1.9c0.4-0.9,1-1.8,1.7-2.9c0.5-0.5,1.2-0.9,1.8-1.3
					c0,0.1,0,0.2,0,0.4c0.1,0.4,0.4,0.8,0.7,1.3c0.8,1.2,1.9,2.1,3.1,2.8c1.3,0.7,2.6,1.1,4,1.2c-0.1,0.3-0.1,0.7,0,1.1
					c0.1,0.3,0.4,0.6,0.7,0.9c0.3,0.2,0.6,0.3,1,0.3s0.7-0.2,1-0.4c0.6-0.5,0.9-1.3,0.9-2.4c0-1.2-0.1-2.3-0.4-3.1
					c-0.1-0.6-0.4-1.1-0.8-1.3c-0.3-0.1-0.8-0.1-1.4,0c-0.7,0.2-1.2,0.3-1.5,0.3c-0.4,0-0.9-0.2-1.3-0.6c-0.2-0.2-0.6-0.6-1-1.2
					c-0.1-0.3-0.3-0.5-0.5-0.7c1.4-0.2,3-0.4,4.9-0.4c0.9,0,1.7,0.7,2.3,2.1c0.2,0.4,0.5,1.5,0.9,3.3c4.4-3.5,6.7-8.2,6.8-13.9
					l-0.1-7.5c0-2.9,0.2-5.4,0.7-7.5c1.6-0.1,2.4,0.8,2.4,2.7c0,1.1-0.1,2.4-0.4,3.8c0,2.3,0.5,5.7,1.5,10.1c1,4.7,1.5,8,1.5,9.9
					c0.2,0.1,1,0.1,2.4,0.1l3.1-0.1c2,0,3.3,0.6,4.1,1.8c0.7,1.3,1.4,1.9,2.1,1.9c0.4,0,0.8-0.2,1.3-0.7c0.5-0.4,0.9-0.6,1.3-0.6
					c1.2,0,2.1,0.5,2.6,1.5c0.2,0.5,0.3,1.5,0.4,2.9l1-0.4l-0.1,0.1c-0.3,0.5-0.4,0.9-0.4,1.3s0.1,1,0.4,1.6
					c0.3,0.3,0.5,0.5,0.6,0.5c0.4,0.1,0.7-0.1,1-0.7c0.1-0.2,0.3-0.7,0.5-1.4c0.1-0.6,0.3-1,0.5-1.3l0.3-0.6l-0.1-0.4l-0.3-0.7
					c-0.2-0.2-0.4-0.4-0.7-0.5c-0.2,0-0.5,0.1-0.7,0.3c0.1-3.8,0.6-7.5,1.8-11.4l4.2-13.9c0.3-1.6,0.6-3.1,1-4.6
					c1-3.2,2.3-5.9,3.9-8.1c2.4-3.1,5.6-5.6,9.4-7.4c0-0.2,0-0.4,0-0.6c0.1-0.4,0.2-0.9,0.4-1.3c-0.2,0.4-0.6,0.9-1.1,1.3
					c-0.8,0.6-1.7,0.9-2.7,0.9c-0.2-0.5-0.3-0.9-0.3-1c0-0.4,0-0.7,0.3-1c0.1-0.1,0.4-0.3,0.7-0.4c0.5-0.1,0.8-0.1,0.8-0.1
					c0.4-0.1,0.7-0.3,1-0.6c1-0.9,1.6-1.8,1.8-2.9h0.6c0.1,0.3,0.2,0.6,0.1,1c0,0.3-0.1,0.6-0.3,0.8l-0.4,0.4c0,0.1-0.1,0.3-0.1,0.5
					c0,0.1-0.1,0.2-0.1,0.4c0-0.1,0.1-0.2,0.1-0.2c0.2,0,0.5,0,0.7,0.1c0.3,0.2,0.6,0.6,0.8,1.2c0.2-0.1,0.6-0.2,1-0.2
					c0,0,0,0.1,0.1,0.3c4.3-1.4,9.4-2.1,15.3-2.1c3.1,0,5.3,0.4,6.6,1.1c1.3,0.9,2.7,1.3,4.3,1.3c1.2,0,2.4-1.3,3.5-3.8l1.4-3.9
					l-0.3-2.4l-1.1,0.7c-0.4-0.1-0.9-0.3-1.5-0.6l2.1-2.1l-0.1-0.4c-0.4-1.9-0.7-3.9-0.7-6c0-1.9,0-3.1,0.1-3.6c1,0.6,2,2.9,2.9,6.9
					l0.3,1.1c1.8-1.5,4.3-3.5,7.5-6l7.4-5.4c0-2.2-0.3-5.7-0.8-10.3c-0.4-3.6-0.6-6.5-0.7-8.9c-0.5,2.1-1.6,3.7-3.5,4.8
					c-0.4,0.5-0.6,0.3-0.6-0.4c0-2.3,0.3-6.1,1-11.3l0.8-5.2c1.1-8.5,1.6-13.5,1.6-15c0-2.1-0.1-3.8-0.4-4.9v-8.3
					c0.3-7.5,0.8-15.5,1.5-23.8c1.3-14.2,2-26.7,2-37.4c0.3-9.4,0.4-16.9,0.4-22.6c0-3.3,0-6.2-0.1-8.9c-0.5-12.2-2.5-21.4-5.8-27.7
					l-0.4-0.7c-3.6-6-9.8-12.8-18.6-20.2c-9.7-8.1-15.9-14.1-18.6-17.8c-4.2-5.8-8.8-11-13.8-15.6l-1.5-1h1.1 M299.5,99.8
					c-0.1-0.3-0.5-0.6-1-0.8c-0.2-0.1-0.4-0.2-0.5-0.3c-0.1,0.2-0.3,0.4-0.7,0.6c0,0-0.2,0.1-0.5,0.1c0,0.1-0.1,0.2-0.2,0.3
					c-0.3,0.3-0.9,0.6-1.5,0.8l-1.8,0.4c-0.1-0.7-0.1-1.3,0.1-1.5l0.7-1.4c0.1-0.3,0.2-0.5,0.4-0.6c-0.1-0.4-0.1-0.8-0.1-1.3
					c0-0.9,0.3-2,0.8-3.3h0.4v-0.3c0.1,0,0.3,0.1,0.4,0.2l0.1-0.1c0.3-0.1,0.6-0.1,0.9,0.1c0.2,0.2,0.4,0.5,0.5,0.8
					c0.1,0.4,0.1,0.9,0.1,1.4c0,0.3,0,0.5,0.1,0.7c0,0.1,0.2,0.3,0.6,0.5c0.5,0.3,1.1,1,1.6,1.8c0.2,0.4,0.3,0.9,0.2,1.3
					C300.1,99.5,299.8,99.7,299.5,99.8 M302.5,107.1l0.4,0.6c0.1,0.2,0.1,0.4-0.1,0.7c-0.1,0.1-0.2,0.4-0.4,0.8l-0.3,0.6
					c-0.1,0.2-0.3,0.4-0.5,0.4c-0.2-0.4-0.6-0.8-1.1-1.1l-0.6-0.4c-0.3-0.2-0.4-0.6-0.4-1.2l0.2-1.2c0-0.5,0.1-0.8,0.2-1
					c0.2-0.4,0.5-0.6,0.9-0.4v-0.3c0.1,0,0.3,0.1,0.7,0.3c0.3,0.1,0.5,0.2,0.7,0.4c0.1,0.1,0.2,0.4,0.2,0.8
					C302.4,106.7,302.4,107,302.5,107.1 M298.8,118.9v-0.2l1.3,0.5c-0.2,0.5-0.8,1-1.6,1.6c-0.1,0.1-0.3,0.2-0.4,0.3
					c-0.1,0.1-0.2,0.1-0.4,0.1l-2.5-0.2c-0.2-0.6-0.3-1.1-0.1-1.4c0.1-0.1,0.5-0.3,1-0.4c0.3,0,0.8,0,1.4,0
					C298,119.1,298.4,119.1,298.8,118.9 M298.8,125.3c0.6-0.2,1-0.2,1.2-0.1c0.3,0.4,0.3,1-0.2,1.6c-0.5,0.5-1.4,0.9-2.6,1.1
					c-1.4,0.2-2.6,0.1-3.5-0.1c-0.6-0.2-1-0.6-1.2-1c-0.1-0.5,0.2-1,1-1.6c0.9,0.2,2.3,0.3,4.2,0.3
					C298,125.4,298.3,125.4,298.8,125.3 M300.7,130.8l0.9-0.5c0.4-0.2,0.7-0.4,1-0.4c0.6-0.1,1.2,0.2,1.8,0.8
					c-0.1,0.6-0.6,1.3-1.5,2l-0.4,0.3c0,0.1,0,0.2,0.1,0.3l0.1,0.9c0,0.6-0.1,1-0.4,1.3l-0.2,0.1c-0.3,0-0.5,0-0.7,0.1
					c-0.3-0.8-0.4-1.6-0.1-2.6h-0.9c-0.1,0-0.2,0-0.3-0.1c0,0-0.1-0.1-0.1-0.2l-0.1-0.2c-0.1,0-0.1-0.1-0.1-0.2c0-0.1,0-0.3,0-0.4
					C299.7,131.5,300,131.1,300.7,130.8 M243.1,93.5c-0.4,1.1-1.2,2.2-2.1,3.2c-0.6,0.6-1.6,1.5-3,2.6c-2.4,1.9-4.2,3.1-5.4,3.7
					c-0.5,0.2-1.3,0.6-2.4,1.1c-1,0.4-1.8,0.8-2.4,1.1c-2.3,1.4-4,2.3-5.2,2.7c-0.8,0.2-1.5,0.3-2.3,0.1c-0.8-0.2-1.4-0.6-1.5-1.2
					c-0.1-0.4,0-0.9,0.1-1.3c0.2-0.5,0.5-0.9,0.9-1.1c0.2-0.2,1-0.6,2.5-1.1c1.1-0.3,2.4-0.9,3.9-1.7L243.1,93.5 M266.5,113.9
					c-0.4-3.2-0.8-6.2-1.1-8.9l3.7,16.4c0.6,2.4,1,4.9,1.3,7.4c0,0.4,0,0.7,0,1c0.1,1.4,0.2,2.8,0.4,4.2v0.3l2.1,5.4H271
					c0.3,3.6,0.6,6.3,1,8.1c1.2,5.2,3.6,9,7.2,11.4h2.6v-6h0.4c0.7,1.3,1,4,1,8c0.2,1.1,1,2,2.4,2.9c1.8,0.8,2.8,1.3,3.2,1.6
					c0.8,0.9,1.7,3.4,2.8,7.4l4.2,18.4h-0.4c-1.2-6-3.1-11.2-5.8-15.6l-0.3-0.4c-3-4.7-7.2-8.6-12.6-11.7c-3.1-1.9-5.4-4.6-6.8-8.2
					c-1.1-2.7-1.8-6.8-2.1-12.3l-0.6-17.8c-0.1-0.9-0.2-1.8-0.2-2.9C267,119.6,266.8,116.7,266.5,113.9 M285.1,196.4l0.1,9.1
					c-0.2,6.7-0.9,12.8-2,18.3c-3.5,17.4-11.3,26.1-23.4,26.1c-4.2,0-9.5-0.7-16.1-2l-13.3-3.1h-0.7c-0.6,0-2.5,0-5.5,0l-4.5,0.1
					c2.2,1,4.3,1.6,6.1,1.9l3.8,0.9c2.5,0.5,5.1,0.8,7.9,1c0.6,0,1,0,1.2,0.1c0,0.2-0.4,0.3-1.2,0.3l-5.8-0.1l6.9,3.5
					c8.9,4.4,15.1,6.9,18.5,7.6c-2.9-0.5-7.9-1.8-14.9-4.1l-17.8-6H224c0.7,0.2,1.8,0.8,3.3,1.9l3.2,2.1v0.6l-15.2-2.7
					c-6.1-1.6-9.4-3.5-9.9-5.8c-0.3-1.3-2.7-4.9-7.2-10.9c-4.6-6.2-7.1-10.6-7.4-13.2v-0.6c2.3,3,5,5.9,8.1,9l1.2,1.2
					c-1.1-2.3-2-4.9-2.6-7.7l-4.8-16.8c-1.3-5-1.9-10.2-1.9-15.6c0-3.7,0.6-7.9,1.9-12.8c1.9-5.9,4.4-10.6,7.5-14.2
					c8.8-10.8,21.3-13.1,37.5-6.8c19,7.2,31.6,13.3,37.8,18.3C281.9,181.4,285.1,188.1,285.1,196.4 M304.4,180.7
					c0.1,0,0.3,0.3,0.5,0.8c0,0.3,0.1,0.5,0.1,0.5l-0.2,0.4l-0.3,0.2c0,0.1-0.1,0.1-0.3,0.1c-0.2,0.1-0.4,0.1-0.4,0.1h-0.3l-0.3-0.1
					c-0.6-0.4-1.1-1.1-1.3-1.9c0.2-0.4,0.6-0.6,1-0.5V180c0.5,0,0.9,0.2,1.3,0.4L304.4,180.7 M313.7,199.4c0.2-0.2,0.4-0.3,0.7-0.2
					c0.3,0,0.5,0.3,0.7,0.9c0.4,0.7,0.8,1.4,1.1,1.8l0.1,0.4c0,0.2,0,0.5-0.1,0.8c-0.2,0.5-0.5,0.8-0.9,0.9c-0.2,0-0.5-0.2-0.8-0.6
					l-0.4-1l-0.5-0.7c-0.2-0.4-0.3-0.9-0.3-1.5C313.5,199.8,313.6,199.6,313.7,199.4 M169.4,63.6c0.6,0.9,0.9,1.9,0.8,3
					c0,0.3-0.1,1.2-0.4,2.7c-0.2,1-0.4,2.9-0.4,5.5l-0.2,8.6c0,1.5-0.3,2.5-0.8,3.2c-0.3,0.4-0.8,0.7-1.3,0.9
					c-0.6,0.1-1.1,0-1.5-0.4c-0.3-0.3-0.5-0.9-0.6-1.7c-0.4-3.8-0.6-7.5-0.7-11.1c0-2.2,0-4,0.3-5.5c0.3-1.9,0.9-3.6,1.8-4.9
					c0.6-1,1.3-1.4,2-1.3C168.7,62.7,169,63,169.4,63.6 M94.6,99c1,0.9,2,1.7,3.1,2.4c0.8,0.4,2.3,1,4.5,1.9
					c2.2,0.8,3.8,1.7,4.9,2.7c0.6,0.6,1.1,1.3,1.3,2c0.2,0.8,0.1,1.5-0.3,2.1c-0.3,0.4-0.7,0.6-1.3,0.7c-0.5,0.1-1,0.1-1.5-0.1
					c-0.4-0.1-0.9-0.4-1.4-0.7c-0.8-0.5-1.2-0.8-1.3-0.8c-0.5-0.3-1.2-0.6-2-1c-0.9-0.3-1.6-0.6-2.1-0.8c-2.8-1.1-6.2-3.1-10.3-6
					c-1.2-0.8-1.7-1.6-1.5-2.4c0.2-0.5,0.7-0.9,1.4-1.1c1.3-0.4,2.8-0.2,4.5,0.6c0,0,0-0.1,0.1-0.1c0.2-0.1,0.5-0.1,0.7-0.1
					C93.7,98.3,94.1,98.6,94.6,99 M118.3,125.2c-0.4-0.3-0.6-0.6-0.5-1c0-0.4,0.2-0.8,0.5-1.2c2.4-3,5.2-5.5,8.5-7.7
					c3.2-2.2,6.7-3.8,10.3-4.9c0.5-0.2,1.5-0.5,2.7-0.8s2.2-0.6,2.8-0.8c1-0.4,2.3-1,4-1.8c1.9-0.9,3.3-1.5,4.1-1.8
					c1-0.4,2.1-0.8,3.2-1.1c1.8-0.8,3.6-1.4,5.5-1.6c2.8-0.4,5.8-0.3,9.1,0.4c1.2,0.1,2.5,0.3,3.8,0.5c6.5,1.2,13.4,3.7,20.4,7.7
					c1.3,0.7,3.1,1.7,5.4,3c2.5,1.4,4.3,2.4,5.4,3c0.9,0.5,1.6,1,2.1,1.3c0.7,0.6,1.3,1.2,1.6,1.8c0.3,0.8,0.3,1.6,0,2.4
					c-0.4,0.9-1,1.3-1.8,1.3c-0.5,0-1.1-0.2-1.9-0.7l-4-2.4c-0.6-0.3-1-0.6-1.2-0.8c-0.4-0.3-0.7-0.7-0.8-1.1l-15.5-7.4
					c0.7,1,1.2,2,1.5,2.9c0.7,2.2,0.7,4.7,0,7.4c-1.1,4.3-3.6,7.9-7.4,10.9c-3.7,2.9-7.9,4.6-12.6,5c-3,0.3-5.9,0-8.6-0.9
					c-3-0.9-5.3-2.5-7.2-4.6c-2.3-2.6-3.7-6-4.3-10.3c-0.6-3.3-0.4-6.2,0.4-8.6c0.1-0.2,0.3-0.4,0.4-0.7c-0.4,0.1-0.7,0.2-0.8,0.3
					c-0.8,0.2-2.3,0.6-4.3,1.2c-1.8,0.5-3.1,0.9-4.1,1.3c-4.5,1.7-9,4.5-13.6,8.5c-0.8,0.7-1.5,1.1-2,1.2
					C119.1,125.5,118.7,125.4,118.3,125.2 M49.2,136.1c2.9-10.3,4.5-20.4,4.6-30.4c0,2.1,0.1,7.3,0.4,15.6c0,5.5-0.4,11.2-1.3,17.1
					v0.4c-0.6,4.6-1.3,8-2.1,10.2c-1.6,2.3-3.2,4.8-4.9,7.5c-3.1,4.9-4.6,8.3-4.6,10.2c0,2.5,0.1,5.2,0.4,8c0,1.2-0.4,2.6-1.2,4
					c0.1-0.1,0.2-0.2,0.3-0.3c0.6-0.5,1.3-0.7,2.1-0.7v1.9c0,0.4-0.2,0.8-0.4,1.1c-0.3,0.4-0.6,0.5-1,0.4H41c-0.3,0-0.7-0.1-1-0.3
					s-0.5-0.4-0.5-0.6c-0.5,0.7-1.1,1.4-1.7,2.1c-1.4,1.5-2.1,4.4-2.1,8.6c0,6.2-0.2,10.8-0.5,13.6c0-1.1-0.4-4.8-1.3-11.1l-1.2-9.3
					l1.7-5.5c2.8-9.2,5.2-15.6,7.3-19.3c1.4-2.3,3.7-9,6.8-20L49.2,136.1 M54,149.6c0-0.2,0-0.5,0-0.7s0.2-0.5,0.4-1
					c0.6-0.6,1.1-1,1.5-1h0.4l0.1,0.1c0,0.2,0.1,0.3,0.2,0.4l0.1,0.2c0,0.2,0,0.3-0.1,0.4c0,0.1-0.1,0.3-0.2,0.6
					c0,0.1-0.1,0.3-0.3,0.5s-0.4,0.6-0.6,1.1c-0.2,0.5-0.5,0.8-0.9,0.9C54.3,150.6,54.1,150.2,54,149.6 M49.5,159.5
					c0.8-1,1.5-1.8,2-2.2c0.4-0.3,0.7-0.6,0.8-0.8c0.3-0.3,0.5-0.6,0.7-0.8c0.2-0.3,0.3-0.6,0.4-0.7c0.2-0.2,0.5-0.3,0.7-0.2
					c0,0.3-0.1,0.9-0.4,1.8c-0.2,0.4-0.5,1-1,1.8c-0.3,0.7-0.6,1.3-0.7,1.9c0,0.2,0,0.5-0.1,0.9c-0.1,0.3-0.2,0.6-0.4,0.8
					c-0.1,0.1-0.2,0.2-0.4,0.4c-0.2,0.1-0.3,0.3-0.4,0.5c0,0.2,0.1,0.6,0.3,1s0.1,0.8-0.1,1c-0.7,0-1.3-0.3-1.7-0.7
					c0,0.1-0.1,0.3-0.1,0.5c0,0.3-0.1,0.6-0.2,0.8c-0.1,0.3-0.4,0.7-0.8,1.1c-0.1,0.3-0.2,0.7-0.3,1.1c-0.2,0.9-0.7,1.8-1.3,2.6
					c-0.6,0.7-1.4,1.3-2.3,1.7c0-0.3,0.1-0.6,0.4-1c0.5-0.4,0.8-0.7,0.9-1c0.1-0.1,0.2-0.4,0.3-0.7c0.1-0.4,0.1-0.6,0.1-0.7
					c0.1-0.4,0.4-0.9,0.9-1.5c0.5-0.7,0.9-1.3,1-1.6c0-0.2,0.1-0.5,0.3-1c0.1-0.5,0.2-0.8,0.3-1c0,0,0-0.1,0.1-0.1
					c-0.3-0.7-0.3-1.5,0-2.3C48.7,160.6,49,160.1,49.5,159.5 M52.1,165.8l0.4-0.6c0.2-0.1,0.4-0.1,0.6-0.1c0.2,0.7,0.3,1.2,0.2,1.5
					l-0.5,0.9c-0.3,0.4-0.6,1-0.8,1.5c-0.4,0.7-1.2,1.6-2.3,2.8c-0.6-0.5-0.8-1-0.7-1.4c0,0,0.1-0.2,0.3-0.5s0.5-0.8,0.8-1.5
					s0.6-1.2,0.8-1.5C51.5,166.6,51.9,166.1,52.1,165.8 M49.2,175.4c0.3-0.1,0.6-0.1,0.9,0.1c0.1,0.1,0.2,0.3,0.3,0.5
					c0.2,0.4,0.3,0.7,0.3,1c0,0.1-0.1,0.4-0.3,0.7c-0.1,0.2-0.3,0.5-0.4,1c-0.1,0.4-0.3,0.8-0.4,1c-0.1,0.2-0.2,0.3-0.4,0.4h-1.3
					c-0.5,0-0.9,0-1-0.1c-0.2-0.2-0.3-0.4-0.3-0.7s0.1-0.6,0.2-0.8c0.1-0.1,0.3-0.3,0.6-0.5l0.7-0.5C48.6,176.9,49,176.2,49.2,175.4
					 M43.4,208.6l0.2-9.1c0-8.2,3.2-14.9,9.7-20.1c6.1-5,18.6-11.1,37.5-18.3c16.3-6.3,28.8-4.1,37.5,6.7c3.2,3.7,5.7,8.5,7.4,14.2
					c1.4,4.8,2.1,9.1,2.1,12.9c0,5.3-0.7,10.4-2,15.6l-4.8,16.8c-0.7,2.7-1.5,5.2-2.5,7.6l1.2-1.2c3-3,5.7-5.9,8-8.9v0.4
					c-0.4,2.6-2.9,7-7.4,13.2c-4.6,6-7.1,9.6-7.4,10.8c-0.2,2.3-3.5,4.3-9.7,6l-15.3,2.6v-0.4l3.3-2.1c1.5-1.2,2.6-1.9,3.2-1.9H104
					l-17.8,6c-7,2.2-12,3.6-15,4.1c3.4-0.7,9.6-3.2,18.6-7.7l6.9-3.6l-6,0.5c-0.8,0-1.2-0.2-1.2-0.5c0.3-0.1,0.7-0.1,1.3-0.1
					c2.8-0.1,5.5-0.4,8-0.9l3.8-0.9c1.8-0.4,3.8-1,6-1.9l-4.4-0.2c-3-0.1-4.8-0.1-5.4,0h-0.9l-13.2,3.2c-6.5,1.3-11.9,2-16.2,2
					c-12,0-19.7-8.7-23.2-26.1C44.2,221.5,43.6,215.3,43.4,208.6 M209.2,76c0.2,0.5,0.2,1.1,0,1.6c-0.1,0.4-0.4,0.9-0.9,1.4
					s-0.8,1-1,1.3c-0.9,1.4-1.6,2.4-2.1,3c-0.4,0.4-1,1-1.7,1.5c-1,0.7-1.6,1.2-1.8,1.3c-0.5,0.4-1.1,1.1-1.9,2
					c-0.8,1-1.4,1.7-1.8,2c-1.6,1.6-3.2,2.5-4.8,2.6c-0.5-0.4-0.5-1.1,0-2.1c0.3-0.8,0.9-1.7,1.7-2.7c0.4-0.5,1.1-1.4,1.9-2.5
					c0.7-1.1,1.2-1.8,1.5-2.1c0.2-0.2,1.1-1.1,2.7-2.4c0.4-0.4,0.9-1,1.6-1.8c0.7-0.9,1.2-1.5,1.5-1.8c1.3-1.5,2.6-2.3,4.1-2.4
					C208.7,75,209.1,75.4,209.2,76 M181.7,137.8c3.5-1,6.5-2.3,9-3.8c2.7-1.7,4.9-3.7,6.8-6c1-1.4,1.9-2.2,2.5-2.6
					c0.5-0.3,1.1-0.5,1.7-0.6c0.6,0,1.2,0.1,1.6,0.5c0.4,0.3,0.7,0.8,0.9,1.4c0.1,0.6,0,1.2-0.2,1.8c-0.1,0.5-0.4,1-0.8,1.5
					c-0.1,0.2-0.5,0.6-1.2,1.3c-2,2.1-3.4,3.5-4.3,4.3c-1.6,1.5-3.2,2.7-4.8,3.5c-1.5,0.8-3.5,1.6-6,2.4c-8.7,2.7-17.2,4.5-25.6,5.3
					c-1.7,0.1-3,0.2-3.8,0.2c-1.4,0-3.2-0.3-5.4-0.8c-6-1.3-10.5-2.5-13.6-3.6c-4.9-1.8-8.9-4-11.9-6.8c0.4-0.5,1-1,1.7-1.3
					c0.6-0.2,1.3-0.2,2.1-0.1c0.8,0.1,2.2,0.6,4,1.4c4.5,2.2,9.1,3.8,13.8,4.7c4.9,1,9.8,1.4,14.5,1c1.9-0.1,5-0.6,9.3-1.4
					C176.2,139.2,179.5,138.4,181.7,137.8 M122.1,74.9c-0.7-0.8-1.3-1.4-1.7-1.9c-1.2-1.6-1.7-3.2-1.4-4.6c3.9,1.2,6.9,3.4,9.1,6.7
					c0.9,1.4,1.7,3,2.4,4.9c0.5,1.2,1,3,1.6,5.3c0.5,1.8,0.8,3.2,0.9,4.2c0.1,1.6,0,2.9-0.5,4.1l-1.8,0.3l-3.2-9.1
					c-0.6-1.8-1.1-3.2-1.5-4.1c-0.7-1.5-1.5-2.8-2.3-3.9C123.5,76.3,122.9,75.7,122.1,74.9 M182,225.2c5.8,8.4,9.2,14.9,10.3,19.5
					c0.7,2.5,2.8,9.4,6.3,20.7l0.4,1.2c3.3,10.5,4.9,16.3,4.9,17.4c0,7.4-0.9,12-2.7,13.9c-1.7,1.7-6,2.5-12.8,2.5
					c-2,0-4.1-0.8-6.3-2.5c-2-1.4-3.4-3-4.4-4.7l-2-3.5c-0.6-1.4-0.9-2.8-0.9-4.2c-0.7,0.4-1.1,0.6-1.3,0.6c-0.5,0.3-1,0.4-1.5,0.4
					c-0.4,0-0.7,0-0.9-0.1v-0.1c0.2-1.5,0.3-3.9,0.3-7.2c0-2.5-0.1-4.4-0.3-5.7c-0.1,0.9-0.8,4.3-2.1,10.2c-1,5.3-1.5,8.3-1.5,9
					c0,2.6-0.8,5-2.5,7.2c-2.2,3.4-5.8,5.1-10.6,5.1c-4.2,0-8.3-0.8-12.3-2.5c-3.1-1.3-4.6-2.3-4.6-2.9l3.5-16.2
					c2-9.6,3.2-16.4,3.5-20.1V262c0-5.4,2.2-12.7,6.6-21.8c4.7-9.7,8.9-14.5,12.5-14.5c1.8,0,3.3,0.7,4.4,2.2
					c0.8,1.3,1.2,2.7,1.1,4.2v0.3c1.4-0.6,2.6-2.1,3.8-4.4c0.9-1.8,1.8-3.7,2.8-5.7c0.9-1.8,1.8-2.6,2.7-2.4
					C179.2,220.2,180.5,221.9,182,225.2 M227.2,260.2c1.5,0.6,3.4,1.5,5.7,2.6l3.2,1.3c3.7,1.9,7.4,3.9,11.1,6l0.3,0.4
					c11.9,6.8,17.9,12.4,17.9,16.7l-0.8,3H264l-0.1-1.1c-1.3-4.8-6.5-9.9-15.6-15.4l-1.1-0.9c-4.3-2.4-7.8-4.5-10.6-6.1l-6-3.8
					C229.4,262.2,228.3,261.3,227.2,260.2 M123.5,258.7c2-0.9,3.3-1.4,4-1.5v0.4l-2.1,1.7c-3.9,2.6-8.3,5.1-13.2,7.4
					c-2.3,1.1-7.9,3.3-16.7,6.7c-6.6,2.6-11.4,4.8-14.5,6.5c-4.4,2.5-7.5,5.1-9.1,7.9l-0.6-0.4v-1c0-1.8,3.3-4.9,10-9.1
					c6.2-3.9,9.8-6,10.8-6.1c6.2-1.2,13-3.6,20.1-7.1C116.9,261.7,120.7,260,123.5,258.7 M189.1,328.7c-0.5,0.6-0.9,1.4-1.1,2.3
					c-0.1,0.1-0.2,0.2-0.3,0.3c0.8-2.6,1.5-3.9,2.2-3.9c0.1,0,0.2,0.1,0.3,0.3C189.8,327.9,189.4,328.3,189.1,328.7 M25.9,274.7
					v-0.1c0.4-1.7,1.1-3.8,2.1-6.3c3.2-8.1,5.1-13.6,5.7-16.5c0,1.5-1.2,6.1-3.5,13.8L26.5,277c0,0.4,0.3,1.4,1,3
					c0.5,1.5,0.8,2.3,1,2.5v1H24c0.1-2.1,0.6-4.7,1.5-7.9L25.9,274.7 M83.8,291.5c0.6-0.6,1.2-0.9,1.8-0.8c0.5,0.1,0.9,0.7,1.3,1.6
					c0.3,0.9,0.5,1.6,0.4,2.1c0,0.2-0.3,0.7-0.7,1.5c-0.4,0.7-0.8,1.5-1,2.4l-0.2,1.3c0.4,0.6,0.6,1,0.7,1.3v0.4l-0.1,0.1
					c-0.2,0.4-0.5,0.6-0.7,0.6s-0.4,0-0.6-0.1l-0.1-0.1c-0.1,0.2-0.3,0.5-0.4,0.8c-0.4,0.9-0.7,1.7-0.8,2.3c-0.3,0-0.6-0.2-0.8-0.4
					c-0.2-0.3-0.3-0.6-0.4-0.9c-0.1-0.5,0-1.1,0.2-1.7c0.3-0.7,0.5-1.3,0.5-1.7c0.1-0.9,0.3-1.5,0.4-1.9c0.1-0.3,0.4-0.9,0.9-1.7
					c0.3-0.7,0.4-1.4,0.1-1.8c-0.8-0.2-1.4-0.5-1.5-1C82.6,293,82.9,292.3,83.8,291.5 M63.3,300.4c0.6,0.1,1.1,0.3,1.3,0.4
					c0,0,0.2,0.2,0.5,0.6c0.4,0.5,0.7,0.8,0.7,0.9s0.2,0.4,0.4,0.8c0.1,0.3,0.3,0.6,0.5,0.7c-1,0.2-1.9,0-2.7-0.6l-1.1,2.4
					c-0.1,0.4-0.3,0.6-0.5,0.7c-0.1,0.1-0.3,0.1-0.6,0c-0.2-0.1-0.3-0.2-0.4-0.4c-0.2-0.3-0.3-0.8-0.1-1.3c0.1-0.5,0.3-1,0.5-1.5
					l0.4-0.9c0-0.5,0-0.9,0.1-1.1c0.2-0.4,0.5-0.6,1-0.6V300.4 M303.1,251l0.4,8.4l-0.6,4.1c-0.4,2.6-0.6,4.3-0.6,4.9
					c-0.9-0.1-1.9,0-3,0.3c-0.6,0.2-1.3,0.4-2,0.7c0.2-3.3,0.6-5.9,1.1-8c0.6-2.8,1.5-5,2.6-6.9L303.1,251 M247,361.7
					c0-0.1,0.1-0.2,0.1-0.4l0.1-0.2l-0.1-0.1l-0.1-0.1c-0.3-0.3-0.5-0.5-0.7-0.5c-0.2-0.1-0.5,0-0.9,0.4l-0.7,0.8
					c-0.2,0.3-0.2,0.7-0.1,1c0,0.1,0.2,0.4,0.4,0.7l0.1,0.1c0.1,0,0.3,0.1,0.5,0.1c0-0.4,0.2-0.7,0.5-1c0.2-0.1,0.3-0.2,0.4-0.3
					C246.8,362,246.9,361.9,247,361.7 M252.3,345.8c-0.2,1.7-0.1,3.1,0.1,4.2c0.2,0.8,0.3,1.3,0.2,1.6c-0.1,0.7-0.1,1.1,0,1.3
					c1-0.4,1.6-0.8,1.8-1.2c0.1-0.2,0.3-0.7,0.5-1.5c0.2-1.1,0.3-2,0.3-2.6c-0.1-0.6-0.2-1.1-0.2-1.5c-0.1-0.6-0.1-1.1,0-1.5
					c0,0,0.1-0.4,0.4-1c0-0.4,0-0.8-0.2-1c-0.3-0.3-0.7-0.4-1.3-0.1C253,343.1,252.5,344.1,252.3,345.8 M154.2,399.2l-0.4-0.4h-0.5
					c-0.7,0-1.4,0.3-2,0.9c-0.3,0.4-0.5,0.7-0.5,0.9c-0.1,0.2-0.1,0.5-0.1,0.8l-0.3,1.1c0,0.7,0.2,1.3,0.8,1.8
					c0.1,0.1,0.3,0.2,0.4,0.2h0.4l1.3-0.2c0.2-0.1,0.3-0.3,0.4-0.6c0.2-0.5,0.5-1.1,0.7-1.8c0.2-0.4,0.3-0.9,0.3-1.3
					C154.6,400.4,154.5,399.9,154.2,399.2 M173.4,410c-0.2-0.1-0.5-0.1-0.7,0.1c-0.1,0.1-0.1,0.4-0.1,0.7l0.1,0.7
					c0,0.1-0.1,0.2-0.2,0.4c0,0.2-0.1,0.3-0.1,0.4l-0.1,0.7c0,0.2-0.2,0.4-0.6,0.7c-0.1,0.2-0.3,0.6-0.4,1.3c0,0.2,0,0.3,0.1,0.4
					c0.1,0.2,0.3,0.4,0.7,0.5c0.5-0.3,0.9-0.6,1.2-0.9c0.4-0.4,0.7-0.8,0.7-1.3c0-0.1-0.1-0.7-0.3-1.6c0-0.5,0-0.9,0-1.1
					C173.7,410.6,173.6,410.2,173.4,410 M173.4,400.6c-0.1-0.1-0.2-0.1-0.4,0c-0.1,0-0.2,0.1-0.2,0.3c0,0.1-0.1,0.4-0.1,0.9
					l-0.2,1.1c-0.1,0.4-0.1,1.2-0.1,2.1c0,0.6,0,1,0.1,1.3c0.1,0.5,0.3,0.9,0.7,1.1c0.4-0.4,0.7-1,0.7-1.5c0.1-0.6,0.1-1.2-0.1-1.8
					l-0.2-1.6C173.7,401.6,173.6,401,173.4,400.6 M173.7,389.3c0,0.1-0.1,0.3-0.3,0.7c-0.1,1-0.2,1.6-0.2,1.8c-0.2,1.7,0,3.3,0.7,5
					h0.5c0.5-1.2,0.8-2.5,0.8-3.9s-0.3-2.7-0.8-4C174.2,388.9,173.9,389,173.7,389.3 M204.2,413.7c0-0.1-0.1-0.2-0.2-0.2
					c0,0-0.2-0.1-0.4-0.1l-1.1,0.3l-0.1,0.2c-0.3,0.7-0.5,1.3-0.4,1.6c0,0.3,0.3,0.7,0.7,1.3l1.7-0.2c0.4-0.6,0.5-1.4,0.2-2.1
					L204.2,413.7 M186.3,387.6l-0.3-1.8c-0.1-0.4-0.2-0.8-0.4-1.1c0-0.2-0.2-0.3-0.4-0.4s-0.4-0.1-0.7,0c-0.4,0.1-0.7,0.2-0.8,0.2
					c-0.1,0.4-0.2,1.2-0.2,2.2c0,0.8,0.2,1.4,0.5,1.5c0.1,0.1,0.4,0.2,0.7,0.2l0.4,0.1c0.4,0,0.7,0,0.8,0
					C186.2,388.3,186.3,388,186.3,387.6 M189.2,377.6c-0.3,0-0.7,0-1.3,0.3c-0.8,0.5-1.4,1.2-1.8,2l0.8,0.6c0.4-0.2,0.7-0.4,1-0.5
					l0.5-0.7C188.8,378.4,189.1,377.9,189.2,377.6 M184.9,372.7c-0.1,0-0.2,0.1-0.2,0.3c-0.1,0.2-0.2,0.8-0.2,1.5l0.1,0.5
					c0,0,0.1,0.2,0.2,0.4c0,0.1,0.1,0.2,0.2,0.2l0.3,0.1c0.8,0.3,1.4,0.3,1.8-0.1c-0.2-0.3-0.3-0.7-0.1-1.1c0-0.1,0.1-0.3,0.1-0.4
					s0-0.3-0.1-0.4l-0.5-1l-0.1-0.2h-0.9C185.2,372.6,185,372.6,184.9,372.7 M182.1,367.9c0,0.3-0.1,0.7-0.3,1
					c-0.1,0.1-0.1,0.3-0.1,0.5s0.1,0.4,0.2,0.5c0.2,0.3,0.4,0.7,0.4,1l0.1,0.9c0.1,0.3,0.2,0.6,0.4,0.7c0.1,0.1,0.4,0.1,0.8,0.1h1.3
					l0.4-0.1c0.1-0.1,0.1-0.2,0.1-0.2c0.3-0.4,0.4-0.7,0.4-0.8c0-0.2-0.2-0.6-0.7-1.2c-0.2-0.2-0.4-0.5-0.6-0.8
					c-0.3-0.4-0.5-0.7-0.7-0.9C183.3,368,182.7,367.7,182.1,367.9 M214.2,383.1l0.4-1.3c0-0.5,0-0.9-0.3-1.2
					c-1.4,0.8-2.3,1.9-2.5,3.4c0,0.2-0.1,0.6-0.1,1.1s-0.1,0.9-0.2,1.1c-0.1,0.3-0.4,0.8-0.9,1.5c-0.2,0.8-0.3,1.8-0.1,3
					c0,0.8,0.2,1.3,0.5,1.6c0.3,0.4,1,0.6,2,0.6c0.2-0.4,0.4-1.1,0.4-2.1s0.1-1.7,0.3-2.1c0.2-0.3,0.3-0.6,0.4-0.7
					c0.2-0.3,0.3-0.6,0.3-0.9c0-0.1,0-0.4,0-1c-0.1-0.5-0.2-1.2-0.2-2.2L214.2,383.1 M213.9,364.8c-0.4-0.4-0.8-0.7-1.1-0.7
					c-0.6,0-1.1,0.4-1.4,1.3c-0.2,0.6-0.3,1.5-0.3,2.7c-0.1,2,0.2,3.4,0.9,4.2c0.1,0.2,0.3,0.3,0.6,0.4c0.2,0.1,0.4,0.1,0.7,0
					c0.1,0,0.2-0.2,0.4-0.4c0.1-0.2,0.2-0.4,0.3-0.6h0.2c0.3-0.8,0.6-1.8,0.7-3c0-0.6,0.1-1.1,0.2-1.3c0.2-0.3,0.4-0.5,0.5-0.7
					c0.1-0.4,0-0.9-0.4-1.3c-0.2-0.1-0.6-0.3-1.2-0.5C214,365,214,364.9,213.9,364.8 M112,376.8c-0.1,0.4-0.1,0.8,0.2,1.2
					c0.3,0.5,0.5,0.9,0.5,1.2c-0.4,0-0.8,0.1-1.1,0.3c-0.4,0.2-0.7,0.5-0.8,0.8c-0.2,0.4-0.1,0.8,0.1,1.3c0.2,0,0.6,0,1,0.1
					s0.7,0,0.9-0.2c0.1-0.1,0.1-0.4,0.1-0.9c0-0.4,0.3-1,0.8-1.7c-0.5-0.8-0.9-1.6-1.1-2.4C112.5,376.5,112.3,376.6,112,376.8
					 M117.5,362.6c0.1-0.4,0.3-1,0.6-1.7c-0.4-0.1-0.9,0.1-1.6,0.6c-0.2,0.1-0.4,0.3-0.5,0.5l-0.2,0.6c-0.1,0.2-0.3,0.5-0.5,0.8
					c-0.3,0.3-0.5,0.6-0.6,0.9l0.5,0.7c0.5,0,1-0.1,1.3-0.3c0.4-0.2,0.8-0.5,1-0.8C117.4,363.7,117.4,363.2,117.5,362.6
					 M106.3,359.8v0.3c-0.6,0-1,0-1.3,0.1c-0.4,0.1-0.7,0.3-0.9,0.7c0.1,0.5,0.6,0.9,1.5,1.2c1.2,0.3,2.6,0.3,4.1,0.1
					c-0.2,0-0.3,0.2-0.4,0.4c-0.1,0.3-0.1,0.6-0.1,0.8c0.1,0.3,0.5,0.7,1.1,1.3c0.6,0.5,0.9,1,1,1.3s0.1,0.6,0,1l-0.1,2.9
					c0,0.8,0,1.4,0.1,1.8c0.1,0.6,0.4,1.2,0.7,1.5c0.3,0,0.7,0,1-0.3c0.3-0.2,0.5-0.5,0.7-0.9c0.1-0.4,0.2-1.1,0.2-2.2
					c0-0.1,0-0.2,0-0.3c0.1-0.1,0.1-0.3,0.1-0.4s0.1-0.4,0.1-0.7s0-0.6,0-0.7s0.2-0.4,0.4-0.8c0.2-0.4,0.3-0.7,0.4-0.9
					c-0.3-0.1-0.6,0-0.9,0.3c-0.1,0.1-0.2,0.3-0.3,0.4c-0.1-1.1-0.4-2.1-0.8-3c-0.2-0.6-0.5-1.1-0.9-1.4c-0.2-0.2-0.4-0.3-0.6-0.4
					c0.1,0,0.3-0.1,0.4-0.1c0.3-0.1,0.6-0.2,0.7-0.4c0.2-0.2,0.3-0.4,0.1-0.6C110.8,359.9,108.6,359.5,106.3,359.8 M238.3,354.2
					c-0.6,0.1-1,0.2-1,0.2l-0.4,0.1c-0.1,0.1-0.3,0.3-0.6,0.5c-0.3,0.4-0.4,0.8-0.4,1.1c0,0.2,0,0.3,0.1,0.4
					c0.1,0.5,0.4,0.9,0.7,1.2c0.6-0.2,1-0.3,1.1-0.4c0.2-0.1,0.3-0.4,0.4-0.7l0.4-1.4C238.5,355,238.4,354.7,238.3,354.2 M226.1,355
					c-0.3,0.5-0.3,1-0.1,1.4c0.3,0.7,1,1.1,2.1,1.3c0.2,0,0.7,0.1,1.3,0.2c0.5,0,0.9,0.2,1.2,0.4c-0.4,0.8-0.4,1.6,0.1,2.4
					c0.1,0.2,0.3,0.4,0.4,0.5c0.1,0.1,0.4,0.1,0.7,0.1c1.1,0.1,1.8-0.1,2.1-0.7c0.4-0.6,0.3-1.2-0.3-1.8c-0.1-0.2-0.4-0.4-0.7-0.7
					c-0.4-0.4-0.6-0.6-0.7-0.7c0.3-0.5,0.5-0.9,0.5-1.2c0.1-0.4,0-0.9-0.3-1.3c-0.1-0.1-0.3-0.2-0.7-0.4c-0.9-0.3-2.3-0.5-4.2-0.4
					c0,0.1-0.1,0.1-0.3,0.1C226.8,354.3,226.4,354.5,226.1,355 M220.9,349.4c0,0.1,0.1,0.2,0.2,0.2l-0.4,0.7c-0.2,0.4-0.5,0.9-1,1.4
					c-0.1,0.3-0.3,0.9-0.6,1.9c-0.5,1.3-0.8,2.1-0.8,2.3c-0.2,0.8-0.1,1.5,0.2,2c-0.1,0.1-0.3,0.1-0.4,0.1c-0.3,0.1-0.5,0.3-0.7,0.5
					l-0.3,0.6c0,0.1-0.3,0.4-0.7,0.8c-0.3,0.3-0.5,0.7-0.6,1c0,0.1,0,0.5,0,1.1c0.2,0.9,0.4,1.6,0.7,2c0.3,0,0.7,0,1-0.2
					c0.2-0.2,0.4-0.5,0.6-0.9c0-0.4,0-0.7,0.1-0.9c0-0.3,0.2-0.7,0.4-1.2c0.3-0.5,0.5-1,0.5-1.3c0.1-0.5,0.2-0.8,0.2-1
					c0.4,0.1,0.9,0.2,1.4,0.1c0.7-0.1,1.2-0.4,1.4-0.7c0.2-0.3,0.4-0.7,0.5-1.3l0.9-3.5c0.3-0.8,0.4-1.5,0.4-2.1
					c0-0.1,0-0.2-0.1-0.2c0.3,0,0.5-0.1,0.5-0.1c0.2-0.3,0.3-0.7,0.3-1.1l0.1-1.1c0.1-0.4,0.1-0.7,0.1-0.9s-0.1-0.5-0.2-0.9
					c-0.1-0.4-0.3-0.8-0.5-1c-0.3-0.3-0.6-0.4-1-0.4c-0.3,0-0.7,0.2-1,0.6c-0.1,0.2-0.3,0.6-0.6,1.1c0,0-0.2,0.2-0.6,0.6
					c-0.3,0.2-0.5,0.4-0.5,0.7C220.5,348.6,220.6,349,220.9,349.4 M199,358.6c-0.3,0.4-0.6,0.8-0.7,1.2c-0.1,0.6,0,1.1,0.4,1.5
					s1,0.6,1.5,0.6c0.8,0,1.5-0.5,2.3-1.4c0.4-0.5,0.6-1,0.6-1.5c0-0.7-0.3-1.3-1-1.6c-0.4-0.2-0.9-0.3-1.3-0.3
					C200.3,357.2,199.7,357.7,199,358.6 M179.6,359.8c-0.3,0-0.6,0.1-0.7,0.2c0,0.1-0.1,0.2-0.1,0.4v1.8l0.3,0.3
					c0.5,0.5,0.9,0.8,1.3,1c0.2-0.1,0.4-0.3,0.5-0.6c0-0.4-0.3-0.8-0.7-1.1c-0.2-0.1-0.3-0.3-0.4-0.4V361
					C180,360.5,179.9,360.1,179.6,359.8 M188.9,349.8v0.3c-0.6,0-1.3,0.5-2.1,1.3c-0.2,0.3-0.4,0.5-0.5,0.7c-0.1,0.3-0.2,0.7-0.1,1
					c0.1,0.4,0.4,0.7,0.7,0.9c0.3,0.1,0.6,0.2,1,0.2s0.7-0.2,1-0.4c0.1,0,0.3-0.2,0.6-0.4l0.7-0.1c0.9-0.1,1.5-0.6,1.8-1.5
					c-0.2-0.5-0.7-1-1.3-1.4C190.1,350.2,189.5,350,188.9,349.8 M176.5,349.9c-0.1-0.1-0.3-0.2-0.5-0.1c-0.5,0.1-0.7,0.7-0.4,1.8
					c0.2,0.7,0.3,1.6,0.4,2.6c0,0.2,0,1,0,2.5c0,2-0.1,5-0.1,9c0,1,0.2,1.6,0.6,2c0.4-0.4,0.6-1.2,0.6-2.2c0-3-0.1-5.4-0.1-6.9
					c0-2.7,0-5,0.1-6.9c0-0.5,0-0.9-0.1-1.2C176.8,350.2,176.7,350,176.5,349.9 M132.4,353.5c0.2-0.3,0.3-0.7,0.1-1
					c-0.2,0-0.5,0.2-0.8,0.5l-0.6,0.8c-0.2,0.4-0.7,0.9-1.4,1.6c-0.1,0.1-0.2,0.3-0.2,0.6c0,0.1,0,0.3,0.1,0.5l-0.1,0.3l-0.7,1.3
					c0.8,0,1.3-0.4,1.6-1.2l0.2-0.7c0.4-0.2,0.6-0.5,0.7-0.7c0.1-0.1,0.2-0.5,0.4-1C132.2,354.1,132.3,353.7,132.4,353.5
					 M121.4,358.4c0,0.1-0.2,0.3-0.4,0.5l-1,0.9c-0.5,0.6-0.8,1-0.8,1c-0.3,0.4-0.5,0.9-0.6,1.5l1.3,0.4c0.2-0.1,0.4-0.3,0.5-0.5
					c0.2-0.3,0.3-0.6,0.4-0.7c0.1-0.3,0.3-0.6,0.6-1c0.3-0.5,0.6-0.9,0.7-1c0.2-0.3,0.4-0.6,0.4-0.9c0.1-0.3,0-0.7-0.1-1
					c-0.1,0-0.3,0-0.4,0c-0.1,0.1-0.3,0.2-0.4,0.3v0.5H121.4z"/>
			</g>
		</g>
	</g>
	<g transform="matrix( 1, 0, 0, 1, 0,0) ">
		<g>
			<g id="Layer3_0_FILL_2_">
				<path class="st0" d="M92.1,572.1h-17v49.2h-17v-49.2H41v67.5h17.1v49.7h17v-49.7h17V572.1 M191,579.4l-39.4,10.4l-15.7,45.9
					l17.6-4.7l-18.8,51.5l53.4-61.5l-15.8,3.7L191,579.4 M234.2,589.4h17.2v100h17.8v-100h16.7v-17.3h-51.7V589.4z"/>
			</g>
		</g>
	</g>
	<g transform="matrix( 0.467193603515625, 0, 0, 0.467193603515625, 28.7,271.25) ">
		<g transform="matrix( 1, 0, 0, 1, 0,0) ">
			<g>
				<g id="klfgklrjgklwgjre_0_Layer0_0_FILL">
					<path class="st0" d="M567.1,260.7c2.6-7.9,3.2-14.4,1.8-19.6c-5.4-1.8-12.3-1.4-20.6,1.2c-7.4,2.4-14.7,6.1-22.1,11.2
						c-7.2,5-12.8,10.2-16.7,15.6c-4.2,5.7-5.5,10.4-4,14.2c-15.8,8.4-30.1,16.8-43.1,25.4c-16.6,10.9-27.6,19.9-33.2,26.9
						l-18.2,2.1c-24.4,21.1-50.6,40.6-78.5,58.4c-5.6,3.6-11.2,7.1-16.8,10.5c-0.9-0.4-1.8-0.9-2.7-1.3
						c-21.5-12.1-43-24.3-64.3-36.6c-59.2-34.1-105.3-57.8-138.3-71c-26.8-11-47.7-23.5-62.6-37.7c-2.8-2.7-8.6-8.8-17.4-18.5
						c-7.2-7.8-13.8-14.3-20-19.5c-1,2.1-1.6,3.8-1.8,5.3c-0.2,1.2-0.3,3.6-0.3,7.3c0,4.4,2.4,10.9,7.3,19.3
						c4.9,8.4,7.3,14,7.3,16.9c0,2.3-1.1,4.4-3.2,6.2c-2.1,1.9-3.1,3.9-3.1,6.2c0,3.7,1.2,6.5,3.5,8.4c3.6,3,10.2,4.5,19.9,4.5
						c5.3,0,9.3-0.9,11.8-2.7c13.1,6.6,28.2,13.9,45.4,21.9c29.4,13.3,51.4,23.3,66,30c54.2,24.8,93,45.8,116.5,62.9
						c7,2.5,13.7,5,20.2,7.4c-22.8,12.9-46,24.3-69.7,34.1c-4.5,1.9-14.8,6.5-31,13.9c-23,10.6-44.1,20.9-63.2,30.7
						C75.8,525.1,45.7,546,45.7,557c0,3.1,0.6,5.9,1.7,8.5c0.4,0.8,1.7,3,3.8,6.5c26.6-21.8,67.7-47.2,123.3-76.3
						c64.1-32.2,111.1-56.7,141.1-73.5c0.1-0.1,0.3-0.1,0.5-0.2c2.8,1,5.4,2.1,8.1,3.3c9.9,6.5,23.1,14.3,39.6,23.4
						c4.9,2.6,26.5,14.1,64.9,34.3c58.3,30.6,95.9,53.9,112.7,70c1.1-1.1,1.7-1.9,1.8-2.5c0.2-0.7,0.3-2.8,0.3-6.2
						c0-1.5-0.5-3.4-1.6-5.7c-1.5-3.4-3.7-6.4-6.7-8.9c2.2-1.3,4.2-3.8,6.2-7.4c1.9-3.3,3-6.6,3.6-9.7c-5.3-3.6-10.2-4.8-14.5-3.6
						c-2.2,0.6-4.1,1.5-5.7,2.9c-10.2,0-51.7-19.6-124.5-58.7c-6.5-5-15.2-10.7-26.3-17c-11.3-6.4-25.8-13.9-43.5-22.6
						c22.1-13.9,59.4-39.4,112-76.4c62.8-44.2,94.5-66.3,95-66.3c2.8,0,6.7,0.9,11.6,2.7c5.4,2.1,9.4,3.5,11.7,4.2
						C563.5,270.7,565.6,265.1,567.1,260.7 M486.9,294.5c1.7-1.3,3.2-2.3,4.7-2.9v5.2l-7.3,0.8C484.3,296.9,485.1,295.9,486.9,294.5
						 M442.1,330.7c2-3.1,6.8-7.1,14.4-12.2c6.7-4.5,11.1-7.1,13.1-7.7c-3.8,4.8-7,8.3-9.3,10.4C454,326.9,448,330.1,442.1,330.7
						 M472.5,494.8c1.1-0.1,1.8,0,2,0.3c3,0.6,6.8,1.9,11.2,4c4.7,2.2,8.5,3.6,11.4,4.3l2.7,1.3c2,1,3.4,2,4.2,2.9
						c-10.1,0.8-18-0.9-23.7-5.1c-1-0.8-2.7-2.4-5.2-4.8c-1.6-1.6-3-2.5-4.1-2.7C471.5,495,471.9,494.9,472.5,494.8 M531.3,514.6
						c0.1-1.2,0.5-1.8,1.2-1.9c1-0.2,3.3,0.3,6.7,1.5c-3.2,3.3-6.2,6.3-9,9.1l-4.9-2.1C529.1,520.3,531.1,518.1,531.3,514.6
						 M67.3,282.6l1,0.7c3.3,1.4,5.6,2.8,7,4.2c-0.7,0-2.3-0.7-4.7-2.2C68.2,283.8,67.1,282.9,67.3,282.6 M55.7,550.4
						c2.6-0.1,3.9,0,3.9,0.4c-0.3,0.8-0.4,2.3-0.3,4.4c0.2,3.7,0.3,5.7,0.3,6.1l-0.6,0.9c-0.7,0.7-1.9,1.3-3.7,1.9
						c-0.9-1.3-1.8-3.2-2.6-5.5c-1-2.8-1.5-5.2-1.5-7.1C51.6,550.9,53.1,550.5,55.7,550.4z"/>
				</g>
			</g>
		</g>
	</g>
</g>
</svg>
