<?xml version="1.0" encoding="utf-8"?>
<!-- Generator: Adobe Illustrator 24.1.3, SVG Export Plug-In . SVG Version: 6.00 Build 0)  -->
<svg version="1.1" xmlns="http://www.w3.org/2000/svg" xmlns:xlink="http://www.w3.org/1999/xlink" x="0px" y="0px"
	 viewBox="0 0 45 35" style="enable-background:new 0 0 45 35;" xml:space="preserve">
<style type="text/css">
	.st0{display:none;}
	.st1{display:inline;}
	.st2{fill:#333333;}
	.st3{display:inline;fill:none;stroke:#FFFFFF;stroke-miterlimit:10;}
	.st4{fill:#FFFFFF;}
</style>
<g id="Ebene_1" class="st0">
	<g class="st1">
		<rect x="-7.5" y="-12.5" class="st2" width="60" height="60"/>
	</g>
</g>
<g id="GRAVEL" class="st0">
	<path class="st3" d="M-3.5,29.5c0,0,5.81,1.69,14.53-0.5c7.97-2,14.41-1.96,20.61-0.5c6.36,1.5,16.86,1,16.86,1"/>
</g>
<g id="TRAIL" class="st0">
	<path class="st3" d="M-3.5,29.5C-3.5,29.5,6,18,13,18c8,0,12.36,7.21,19,5c6-2,16.5,6.5,16.5,6.5"/>
</g>
<g id="ALLMOUNTAIN">
	<g>
		<path class="st4" d="M2.09,32.15c-0.18,0-0.37-0.03-0.55-0.1c-0.83-0.3-1.25-1.22-0.95-2.04c0.43-1.17,4.35-11.4,10.85-11.4
			c2.33,0,3.46-1.48,5.1-3.9c1.55-2.28,3.3-4.86,6.84-4.86c3.57,0,8.4,4.25,10.99,9.66c2.63,5.49,9.09,8.36,9.15,8.39
			c0.8,0.35,1.18,1.29,0.83,2.1c-0.35,0.81-1.29,1.17-2.09,0.83c-0.31-0.13-7.6-3.35-10.76-9.93c-2.3-4.8-6.34-7.86-8.12-7.86
			c-1.76,0-2.75,1.32-4.21,3.46c-1.61,2.36-3.6,5.3-7.74,5.3c-3.64,0-6.98,6.89-7.86,9.31C3.35,31.75,2.74,32.15,2.09,32.15z"/>
	</g>
</g>
<g id="ENDURO" class="st0">
	<path class="st3" d="M-2.75,16.25C-2.75,16.25,1,10,8,10c8,0,6-7,13-7c3.27,0,11.87,8.48,15,15c3.69,7.69,12.5,11.5,12.5,11.5"/>
</g>
<g id="DOWNHILL" class="st0">
	<path class="st3" d="M-3-7c0,0,5,6,12,6c8,0,8.18,8.12,14,12c3,2,8.87,0.48,12,7c3.69,7.69,13.5,11.5,13.5,11.5"/>
</g>
<g id="DIRT" class="st0">
	<path class="st3" d="M28.91,16C30.59,26.5,48.5,29.5,48.5,29.5"/>
	<path class="st3" d="M-3.5,29.5c0,0,17.7-1,19.5-12.5"/>
</g>
</svg>
