<?xml version="1.0" encoding="utf-8"?>
<!-- Generator: Adobe Illustrator 24.1.3, SVG Export Plug-In . SVG Version: 6.00 Build 0)  -->
<svg version="1.1" xmlns="http://www.w3.org/2000/svg" xmlns:xlink="http://www.w3.org/1999/xlink" x="0px" y="0px"
	 viewBox="0 0 45 35" style="enable-background:new 0 0 45 35;" xml:space="preserve">
<style type="text/css">
	.st0{display:none;}
	.st1{display:inline;}
	.st2{fill:#333333;}
	.st3{display:inline;fill:none;stroke:#FFFFFF;stroke-miterlimit:10;}
	.st4{fill:#FFFFFF;}
</style>
<g id="Ebene_1" class="st0">
	<g class="st1">
		<rect x="-7.5" y="-12.5" class="st2" width="60" height="60"/>
	</g>
</g>
<g id="GRAVEL" class="st0">
	<path class="st3" d="M-3.5,29.5c0,0,5.81,1.69,14.53-0.5c7.97-2,14.41-1.96,20.61-0.5c6.36,1.5,16.86,1,16.86,1"/>
</g>
<g id="TRAIL">
	<g>
		<path class="st4" d="M2.07,31.84c-0.35,0-0.71-0.12-1-0.36c-0.67-0.55-0.76-1.54-0.21-2.21c0.81-0.98,8.11-9.61,14.18-9.61
			c3.29,0,5.83,1.34,8.07,2.52c2.34,1.23,4.19,2.21,6.36,1.49c5.38-1.79,13.54,4.64,14.45,5.38c0.67,0.55,0.78,1.53,0.23,2.21
			c-0.55,0.67-1.53,0.78-2.21,0.23c-2.93-2.37-8.65-5.78-11.48-4.84c-3.45,1.15-6.18-0.29-8.82-1.69c-2.01-1.06-4.09-2.16-6.61-2.16
			c-3.9,0-9.81,6.11-11.75,8.47C2.97,31.64,2.52,31.84,2.07,31.84z"/>
	</g>
</g>
<g id="ALLMOUNTAIN" class="st0">
	<path class="st3" d="M-2.75,31C-2.75,31,2,18,9,18c8,0,8-11,15-11c3.27,0,8.87,4.48,12,11c3.69,7.69,12.5,11.5,12.5,11.5"/>
</g>
<g id="ENDURO" class="st0">
	<path class="st3" d="M-2.75,16.25C-2.75,16.25,1,10,8,10c8,0,6-7,13-7c3.27,0,11.87,8.48,15,15c3.69,7.69,12.5,11.5,12.5,11.5"/>
</g>
<g id="DOWNHILL" class="st0">
	<path class="st3" d="M-3-7c0,0,5,6,12,6c8,0,8.18,8.12,14,12c3,2,8.87,0.48,12,7c3.69,7.69,13.5,11.5,13.5,11.5"/>
</g>
<g id="DIRT" class="st0">
	<path class="st3" d="M28.91,16C30.59,26.5,48.5,29.5,48.5,29.5"/>
	<path class="st3" d="M-3.5,29.5c0,0,17.7-1,19.5-12.5"/>
</g>
</svg>
