<?xml version="1.0" encoding="utf-8"?>
<!-- Generator: Adobe Illustrator 24.1.3, SVG Export Plug-In . SVG Version: 6.00 Build 0)  -->
<svg version="1.1" xmlns="http://www.w3.org/2000/svg" xmlns:xlink="http://www.w3.org/1999/xlink" x="0px" y="0px"
	 viewBox="0 0 45 35" style="enable-background:new 0 0 45 35;" xml:space="preserve">
<style type="text/css">
	.st0{display:none;}
	.st1{display:inline;}
	.st2{fill:#333333;}
	.st3{display:inline;fill:none;stroke:#FFFFFF;stroke-miterlimit:10;}
	.st4{fill:#FFFFFF;}
</style>
<g id="Ebene_1" class="st0">
	<g class="st1">
		<rect x="-7.5" y="-12.5" class="st2" width="60" height="60"/>
	</g>
</g>
<g id="GRAVEL" class="st0">
	<path class="st3" d="M-3.5,29.5c0,0,5.81,1.69,14.53-0.5c7.97-2,14.41-1.96,20.61-0.5c6.36,1.5,16.86,1,16.86,1"/>
</g>
<g id="TRAIL" class="st0">
	<path class="st3" d="M-3.5,29.5C-3.5,29.5,6,18,13,18c8,0,12.36,7.21,19,5c6-2,16.5,6.5,16.5,6.5"/>
</g>
<g id="ALLMOUNTAIN" class="st0">
	<path class="st3" d="M-2.75,31C-2.75,31,2,18,9,18c8,0,8-11,15-11c3.27,0,8.87,4.48,12,11c3.69,7.69,12.5,11.5,12.5,11.5"/>
</g>
<g id="ENDURO">
	<g>
		<path class="st4" d="M42.91,33.4c-0.21,0-0.42-0.04-0.63-0.13c-0.31-0.13-7.6-3.35-10.76-9.93c-2.49-5.21-8.94-11-10.51-11.04
			c-1.92,0-2.52,0.77-3.51,2.04c-1.17,1.49-2.77,3.54-6.84,3.54c-4.57,0-7.09,4.04-7.2,4.21C3,22.82,2.02,23.06,1.27,22.61
			c-0.75-0.45-0.99-1.43-0.54-2.18c0.14-0.23,3.52-5.75,9.93-5.75c2.52,0,3.28-0.97,4.33-2.32c1.14-1.45,2.55-3.26,6.02-3.26
			c3.58,0,10.81,7.48,13.38,12.85c2.63,5.49,9.09,8.36,9.15,8.39c0.8,0.35,1.18,1.29,0.83,2.1C44.11,33.04,43.52,33.4,42.91,33.4z"
			/>
	</g>
</g>
<g id="DOWNHILL" class="st0">
	<path class="st3" d="M-3-7c0,0,5,6,12,6c8,0,8.18,8.12,14,12c3,2,8.87,0.48,12,7c3.69,7.69,13.5,11.5,13.5,11.5"/>
</g>
<g id="DIRT" class="st0">
	<path class="st3" d="M28.91,16C30.59,26.5,48.5,29.5,48.5,29.5"/>
	<path class="st3" d="M-3.5,29.5c0,0,17.7-1,19.5-12.5"/>
</g>
</svg>
