<?xml version="1.0" encoding="utf-8"?>
<!-- Generator: Adobe Illustrator 24.1.3, SVG Export Plug-In . SVG Version: 6.00 Build 0)  -->
<svg version="1.1" xmlns="http://www.w3.org/2000/svg" xmlns:xlink="http://www.w3.org/1999/xlink" x="0px" y="0px"
	 viewBox="0 0 45 35" style="enable-background:new 0 0 45 35;" xml:space="preserve">
<style type="text/css">
	.st0{display:none;}
	.st1{display:inline;}
	.st2{fill:#333333;}
	.st3{display:inline;fill:none;stroke:#FFFFFF;stroke-miterlimit:10;}
	.st4{fill:#FFFFFF;}
</style>
<g id="Ebene_1" class="st0">
	<g class="st1">
		<rect x="-7.5" y="-12.5" class="st2" width="60" height="60"/>
	</g>
</g>
<g id="GRAVEL" class="st0">
	<path class="st3" d="M-3.5,29.5c0,0,5.81,1.69,14.53-0.5c7.97-2,14.41-1.96,20.61-0.5c6.36,1.5,16.86,1,16.86,1"/>
</g>
<g id="TRAIL" class="st0">
	<path class="st3" d="M-3.5,29.5C-3.5,29.5,6,18,13,18c8,0,12.36,7.21,19,5c6-2,16.5,6.5,16.5,6.5"/>
</g>
<g id="ALLMOUNTAIN" class="st0">
	<path class="st3" d="M-2.75,31C-2.75,31,2,18,9,18c8,0,8-11,15-11c3.27,0,8.87,4.48,12,11c3.69,7.69,12.5,11.5,12.5,11.5"/>
</g>
<g id="ENDURO" class="st0">
	<path class="st3" d="M-2.75,16.25C-2.75,16.25,1,10,8,10c8,0,6-7,13-7c3.27,0,11.87,8.48,15,15c3.69,7.69,12.5,11.5,12.5,11.5"/>
</g>
<g id="DOWNHILL">
	<g>
		<path class="st4" d="M42.91,34.3c-0.19,0-0.38-0.03-0.57-0.11c-0.34-0.13-8.4-3.32-11.56-9.91c-1.34-2.8-3.38-3.24-5.54-3.71
			c-1.18-0.26-2.4-0.52-3.42-1.2c-2.07-1.38-3.33-3.31-4.45-5.01c-1.77-2.7-2.91-4.24-5.77-4.24c-6.22,0-10.55-5.11-10.73-5.33
			C0.31,4.12,0.4,3.12,1.07,2.56C1.74,2,2.74,2.09,3.3,2.76c0.04,0.05,3.59,4.19,8.3,4.19c4.72,0,6.69,3.01,8.43,5.67
			c1.04,1.59,2.02,3.09,3.55,4.11c0.52,0.35,1.36,0.53,2.34,0.74c2.41,0.53,5.72,1.25,7.73,5.44c2.61,5.44,9.78,8.3,9.85,8.33
			c0.81,0.32,1.22,1.24,0.9,2.05C44.15,33.92,43.55,34.3,42.91,34.3z"/>
	</g>
</g>
<g id="DIRT" class="st0">
	<path class="st3" d="M28.91,16C30.59,26.5,48.5,29.5,48.5,29.5"/>
	<path class="st3" d="M-3.5,29.5c0,0,17.7-1,19.5-12.5"/>
</g>
</svg>
